<svg xmlns="http://www.w3.org/2000/svg" width="512" height="512" style="enable-background:new 0 0 512 512" xml:space="preserve"><path xmlns="http://www.w3.org/2000/svg" d="M360 16.005c-83.813 0-152 68.187-152 152s68.187 152 152 152 152-68.187 152-152-68.187-152-152-152z" fill="#ae85cc" data-original="#ae85cc"/><path xmlns="http://www.w3.org/2000/svg" d="m450.4 192.804-13.669-10.252c4.611-8.955 7.269-19.398 7.269-30.548 0-33.084-23.327-60-52-60s-52 26.916-52 60 23.327 60 52 60c11.018 0 21.239-3.986 29.657-10.757L436 212.005a8 8 0 0 0 11.2-1.6l4.8-6.4a8.002 8.002 0 0 0-1.6-11.201zm-58.4-4.799c-15.439 0-28-16.149-28-36s12.561-36 28-36 28 16.149 28 36c0 5.685-1.034 11.064-2.867 15.85l-5.133-3.85a8 8 0 0 0-11.2 1.6l-4.8 6.4a8 8 0 0 0 1.6 11.2l3.679 2.759c-2.906 1.317-6.027 2.041-9.279 2.041z" fill="#f3f1f1" data-original="#f3f1f1"/><path xmlns="http://www.w3.org/2000/svg" d="M152 16.005c-83.813 0-152 68.187-152 152s68.187 152 152 152 152-68.187 152-152-68.187-152-152-152z" fill="#9cc445" data-original="#9cc445"/><path xmlns="http://www.w3.org/2000/svg" d="M176 312.005c-83.813 0-152-68.187-152-152 0-62.587 38.026-116.453 92.185-139.727C49.599 36.423 0 96.525 0 168.005c0 83.813 68.187 152 152 152 21.226 0 41.447-4.38 59.815-12.273A151.865 151.865 0 0 1 176 312.005z" fill="#86ad32" data-original="#86ad32"/><path xmlns="http://www.w3.org/2000/svg" d="M180 116.005v-8a8 8 0 0 0-8-8h-68c-6.627 0-12 5.373-12 12v96a8 8 0 0 0 8 8h8a8 8 0 0 0 8-8v-36h40a8 8 0 0 0 8-8v-8a8 8 0 0 0-8-8h-40v-24h56a8 8 0 0 0 8-8z" fill="#f3f1f1" data-original="#f3f1f1"/><path xmlns="http://www.w3.org/2000/svg" d="M256 176.005c-83.813 0-152 68.187-152 152 0 42.029 17.417 82.112 47.964 110.809l-15.554 46.661c-2.161 6.481 4.659 12.647 10.9 9.813l55.059-25.027c17.133 6.468 35.157 9.744 53.631 9.744 83.813 0 152-68.187 152-152s-68.187-152-152-152z" fill="#ffc44f" data-original="#ffc44f"/><path xmlns="http://www.w3.org/2000/svg" d="m160.411 485.474 15.554-46.661C145.417 410.117 128 370.034 128 328.005c0-79.775 61.775-145.389 140-151.527-3.96-.311-7.961-.473-12-.473-83.813 0-152 68.187-152 152 0 42.029 17.417 82.112 47.964 110.809l-15.554 46.661c-2.161 6.481 4.659 12.646 10.9 9.813l12.86-5.846a7.65 7.65 0 0 1 .241-3.968z" fill="#ffb357" data-original="#ffb357"/><path xmlns="http://www.w3.org/2000/svg" d="m305.789 380.526 7.155-3.578a8 8 0 0 0 3.578-10.733L300 332.005h-.583l-32.683-65.366a12.007 12.007 0 0 0-12.839-6.45c-3.83.671-7.043 3.282-8.782 6.759L212 332.005v1.167l-16.522 33.043a8 8 0 0 0 3.578 10.733l7.156 3.578a8 8 0 0 0 10.733-3.578l10.472-20.944h57.167l10.472 20.944a7.999 7.999 0 0 0 10.733 3.578zm-66.372-48.521L256 298.838l16.584 33.167h-33.167z" fill="#f3f1f1" data-original="#f3f1f1"/></svg>