<svg xmlns="http://www.w3.org/2000/svg" width="512" height="512" viewBox="0 0 37.434 37.434" style="enable-background:new 0 0 512 512" xml:space="preserve"><path d="M32.932 8.578H27.52v-.556c0-2.484-2.016-4.5-4.5-4.5h-8.607a4.501 4.501 0 0 0-4.5 4.5v.556H4.5a4.5 4.5 0 0 0-4.5 4.5v16.334c0 2.484 2.015 4.5 4.5 4.5h28.434c2.485 0 4.5-2.016 4.5-4.5V13.078a4.503 4.503 0 0 0-4.502-4.5zM18.715 29.244c-4.688 0-8.5-3.812-8.5-8.5 0-4.687 3.812-8.5 8.5-8.5 4.688 0 8.5 3.812 8.5 8.5 0 4.688-3.813 8.5-8.5 8.5zm4.5-8.5c0 2.479-2.02 4.5-4.5 4.5s-4.5-2.021-4.5-4.5c0-2.48 2.02-4.5 4.5-4.5s4.5 2.02 4.5 4.5z" fill="#fff" data-original="white" xmlns="http://www.w3.org/2000/svg"/></svg>