<svg xmlns="http://www.w3.org/2000/svg" width="512" height="512" viewBox="0 0 511.926 511.926" style="enable-background:new 0 0 512 512" xml:space="preserve"><g fill="#fff"><path xmlns="http://www.w3.org/2000/svg" d="M439.973 0h-22.01c-9.675 0-9.675 15 0 15h22.01c22.73 0 41.223 18.426 41.223 41.074v173.572c0 22.649-18.492 41.075-41.223 41.075H415.01a7.501 7.501 0 0 0-4.557 1.543l-45.806 35.038v-29.081a7.5 7.5 0 0 0-7.5-7.5h-91.28c-7.475 0-14.659-1.973-20.995-5.724v-84.192c0-15.77-8.032-29.703-20.229-37.946V56.074c0-22.648 18.493-41.074 41.224-41.074h105.096c9.674 0 9.674-15 0-15H265.867c-31.002 0-56.224 25.155-56.224 56.074v80.193A45.982 45.982 0 0 0 198.949 135H61.653c-25.321 0-45.922 20.548-45.922 45.805V197c0 9.674 15 9.674 15 0v-16.195c0-16.986 13.871-30.805 30.922-30.805H198.95c17.051 0 30.923 13.819 30.923 30.805v87.178a7.503 7.503 0 0 0 0 1.986v47.712c0 .943-.057 1.882-.142 2.816h-15.467c-17.043 0-31.251 12.301-34.197 28.468a7.519 7.519 0 0 0-1.944 1.084l-33.545 25.901v-19.964a7.5 7.5 0 0 0-7.5-7.5H61.653c-17.051 0-30.922-13.819-30.922-30.805V242c0-9.674-15-9.674-15 0v75.682c0 25.257 20.601 45.805 45.922 45.805h67.926v27.73c0 6.016 7.305 9.625 12.084 5.937l37.835-29.213v84.375c0 19.125 15.597 34.683 34.767 34.683h46.025V504.5c0 6.014 7.305 9.627 12.083 5.937l30.356-23.438h8.968c19.17 0 34.767-15.559 34.767-34.683V439c0-9.674-15-9.674-15 0v13.316c0 10.854-8.867 19.683-19.767 19.683H300.17a7.5 7.5 0 0 0-4.583 1.563l-20.298 15.671v-9.735a7.5 7.5 0 0 0-7.5-7.5h-53.525c-10.899 0-19.767-8.83-19.767-19.683v-97.134c0-10.854 8.867-19.683 19.767-19.683h97.433c10.899 0 19.767 8.83 19.767 19.683V392c0 9.674 15 9.674 15 0v-36.818c0-19.125-15.597-34.683-34.767-34.683h-66.91c.057-.937.086-38.818.086-38.818a56.134 56.134 0 0 0 20.995 4.041h83.78v36.76c0 6.001 7.274 9.614 12.057 5.957l55.846-42.717h22.423c31.001 0 56.223-25.155 56.223-56.075V56.074C496.196 25.155 470.974 0 439.973 0z" data-original="white"/><path xmlns="http://www.w3.org/2000/svg" d="M371.66 55.412c-9.523-2.431-19.227 5.093-19.227 14.933a44.063 44.063 0 0 1-11.027 29.169l-20.664 23.383a7.487 7.487 0 0 0-6.283-3.412h-40.34a7.5 7.5 0 0 0-7.5 7.5v90.765a7.5 7.5 0 0 0 7.5 7.5h40.34a7.496 7.496 0 0 0 6.818-4.387c8.167 4.99 17.631 7.688 27.26 7.688h71.292c10.894 0 19.881-9.453 19.37-20.319-.227-4.812.021-69.425.021-70.86 0-10.692-8.699-19.392-19.369-19.392l-37.073-.111 1.535-3.635c7.015-16.613 5.86-35.877-3.086-51.534a15.283 15.283 0 0 0-9.567-7.288c-4.082-1.042 4.08 1.043 0 0-9.522-2.431 4.08 1.043 0 0zM306.959 210.25h-25.34v-75.765h25.34zm112.87-77.271a4.397 4.397 0 0 1 4.392 4.392c0 1.427-.015 5.3-.035 10.551-.111 28.992-.185 56.45.029 61.014a4.378 4.378 0 0 1-1.207 3.253 4.356 4.356 0 0 1-3.179 1.361h-71.292a37.342 37.342 0 0 1-23.421-8.292l-3.157-2.556v-58.531l30.691-34.729a59.054 59.054 0 0 0 14.783-39.098c0-.424.579-.534.771-.204 6.642 11.623 7.498 25.924 2.291 38.257l-5.919 14.019a7.502 7.502 0 0 0 6.886 10.418zM79.951 260.498c-4.143 0-7.5 3.358-7.5 7.5s3.357 7.5 7.5 7.5h22.108l-4.13 24.979a7.5 7.5 0 0 0 14.799 2.447l4.534-27.425h18.093l-4.13 24.979a7.5 7.5 0 0 0 14.799 2.447l4.534-27.425h30.093c4.143 0 7.5-3.358 7.5-7.5s-3.357-7.5-7.5-7.5h-27.613l3.025-18.296h24.588c4.143 0 7.5-3.358 7.5-7.5s-3.357-7.5-7.5-7.5h-22.108l4.13-24.979a7.5 7.5 0 0 0-6.176-8.623 7.497 7.497 0 0 0-8.623 6.176l-4.534 27.425h-18.093l4.13-24.979a7.5 7.5 0 0 0-6.176-8.623 7.494 7.494 0 0 0-8.623 6.176l-4.534 27.425H79.951c-4.143 0-7.5 3.358-7.5 7.5s3.357 7.5 7.5 7.5h27.613l-3.025 18.296zm42.817-18.296h18.093l-3.025 18.296h-18.093zM262.89 374.196c-6.056-4.986-14.113-6.953-22.195-4.988-10.357 2.515-20.808 12.197-20.808 28.156 0 9.933 3.625 18.555 11.082 26.359 6.091 6.375 14.881 12.437 28.499 19.657a7.492 7.492 0 0 0 7.026 0c23.758-12.595 39.58-25.24 39.58-46.016 0-16.046-10.822-25.629-21.548-28.008-8.058-1.788-15.87.11-21.636 4.84zm28.183 23.168c0 11.206-7.433 19.493-28.093 30.866-20.66-11.374-28.094-19.661-28.094-30.866 0-8.338 4.828-12.482 9.347-13.58a11.245 11.245 0 0 1 2.642-.316c3.399 0 7.136 1.57 9.44 6.037a7.5 7.5 0 0 0 13.461-.268c2.427-5.202 7.531-6.117 11.499-5.236 4.738 1.049 9.798 5.112 9.798 13.363z" data-original="white"/></g></svg>